<svg width="1600" height="1000" viewBox="0 0 1600 1000" fill="none" xmlns="http://www.w3.org/2000/svg">
  <rect width="1600" height="1000" fill="#EFF6FF"/>
  <rect width="1600" height="1000" fill="url(#a)"/>
  <circle cx="1260" cy="190" r="170" fill="#2563EB" fill-opacity=".12"/>
  <circle cx="240" cy="760" r="220" fill="#0F766E" fill-opacity=".12"/>
  <rect x="120" y="150" width="1360" height="700" rx="56" fill="#fff"/>
  <rect x="120" y="150" width="1360" height="700" rx="56" stroke="#BFDBFE" stroke-width="8"/>
  <rect x="210" y="240" width="620" height="440" rx="36" fill="#DBEAFE"/>
  <rect x="300" y="330" width="440" height="240" rx="24" fill="#1E3A8A"/>
  <path d="M350 530L455 440L525 490L640 390" stroke="#FBBF24" stroke-width="16" stroke-linecap="round" stroke-linejoin="round"/>
  <circle cx="350" cy="530" r="14" fill="#FBBF24"/>
  <circle cx="455" cy="440" r="14" fill="#FBBF24"/>
  <circle cx="525" cy="490" r="14" fill="#FBBF24"/>
  <circle cx="640" cy="390" r="14" fill="#FBBF24"/>
  <rect x="890" y="270" width="420" height="82" rx="24" fill="#1D4ED8"/>
  <rect x="890" y="390" width="490" height="28" rx="14" fill="#94A3B8"/>
  <rect x="890" y="442" width="460" height="28" rx="14" fill="#CBD5E1"/>
  <rect x="890" y="494" width="380" height="28" rx="14" fill="#CBD5E1"/>
  <rect x="890" y="570" width="310" height="64" rx="20" fill="#0F766E"/>
  <text x="210" y="915" fill="#1E3A8A" font-family="Arial, sans-serif" font-size="40" font-weight="700">Replace: /public/images/placeholders/academics-learning.svg</text>
  <defs>
    <linearGradient id="a" x1="190" y1="90" x2="1450" y2="900" gradientUnits="userSpaceOnUse">
      <stop stop-color="#EFF6FF"/>
      <stop offset="1" stop-color="#ECFDF5"/>
    </linearGradient>
  </defs>
</svg>
