<svg width="1600" height="1000" viewBox="0 0 1600 1000" fill="none" xmlns="http://www.w3.org/2000/svg">
  <rect width="1600" height="1000" fill="#FFF7ED"/>
  <rect width="1600" height="1000" fill="url(#a)"/>
  <circle cx="1350" cy="190" r="170" fill="#EC4899" fill-opacity=".12"/>
  <circle cx="240" cy="780" r="220" fill="#F59E0B" fill-opacity=".14"/>
  <rect x="120" y="150" width="1360" height="700" rx="56" fill="#fff"/>
  <rect x="120" y="150" width="1360" height="700" rx="56" stroke="#FED7AA" stroke-width="8"/>
  <rect x="220" y="250" width="560" height="460" rx="36" fill="#FFE4E6"/>
  <circle cx="390" cy="430" r="76" fill="#FB7185"/>
  <circle cx="580" cy="450" r="92" fill="#F59E0B"/>
  <path d="M280 620C350 548 458 520 560 532C624 540 684 570 736 620" stroke="#9A3412" stroke-width="18" stroke-linecap="round"/>
  <rect x="860" y="270" width="440" height="86" rx="24" fill="#BE123C"/>
  <rect x="860" y="395" width="510" height="28" rx="14" fill="#94A3B8"/>
  <rect x="860" y="447" width="470" height="28" rx="14" fill="#CBD5E1"/>
  <rect x="860" y="499" width="420" height="28" rx="14" fill="#CBD5E1"/>
  <rect x="860" y="573" width="300" height="64" rx="20" fill="#F59E0B"/>
  <text x="210" y="915" fill="#9A3412" font-family="Arial, sans-serif" font-size="40" font-weight="700">Replace: /public/images/placeholders/admissions-welcome.svg</text>
  <defs>
    <linearGradient id="a" x1="170" y1="80" x2="1450" y2="910" gradientUnits="userSpaceOnUse">
      <stop stop-color="#FFF7ED"/>
      <stop offset="1" stop-color="#FDF2F8"/>
    </linearGradient>
  </defs>
</svg>
