<svg width="1600" height="1000" viewBox="0 0 1600 1000" fill="none" xmlns="http://www.w3.org/2000/svg">
  <rect width="1600" height="1000" fill="#F8FAFC"/>
  <rect width="1600" height="1000" fill="url(#a)"/>
  <circle cx="1280" cy="200" r="180" fill="#2563EB" fill-opacity=".12"/>
  <circle cx="260" cy="780" r="220" fill="#8B5CF6" fill-opacity=".12"/>
  <rect x="120" y="150" width="1360" height="700" rx="56" fill="#fff"/>
  <rect x="120" y="150" width="1360" height="700" rx="56" stroke="#BFDBFE" stroke-width="8"/>
  <rect x="220" y="250" width="560" height="430" rx="36" fill="#DBEAFE"/>
  <path d="M300 590L500 360L700 590" stroke="#1D4ED8" stroke-width="22" stroke-linecap="round" stroke-linejoin="round"/>
  <rect x="390" y="450" width="220" height="140" rx="24" fill="#F8FAFC" stroke="#93C5FD" stroke-width="8"/>
  <rect x="860" y="270" width="430" height="84" rx="24" fill="#1E3A8A"/>
  <rect x="860" y="392" width="500" height="28" rx="14" fill="#94A3B8"/>
  <rect x="860" y="444" width="440" height="28" rx="14" fill="#CBD5E1"/>
  <rect x="860" y="496" width="400" height="28" rx="14" fill="#CBD5E1"/>
  <rect x="860" y="570" width="290" height="64" rx="20" fill="#8B5CF6"/>
  <text x="210" y="915" fill="#1E3A8A" font-family="Arial, sans-serif" font-size="40" font-weight="700">Replace: /public/images/placeholders/contact-campus.svg</text>
  <defs>
    <linearGradient id="a" x1="160" y1="100" x2="1450" y2="900" gradientUnits="userSpaceOnUse">
      <stop stop-color="#EFF6FF"/>
      <stop offset="1" stop-color="#F5F3FF"/>
    </linearGradient>
  </defs>
</svg>
