<svg width="1600" height="1000" viewBox="0 0 1600 1000" fill="none" xmlns="http://www.w3.org/2000/svg">
  <rect width="1600" height="1000" fill="#FFF7ED"/>
  <rect width="1600" height="1000" fill="url(#a)"/>
  <circle cx="1300" cy="190" r="175" fill="#F97316" fill-opacity=".12"/>
  <circle cx="260" cy="770" r="210" fill="#2563EB" fill-opacity=".12"/>
  <rect x="120" y="150" width="1360" height="700" rx="56" fill="#fff"/>
  <rect x="120" y="150" width="1360" height="700" rx="56" stroke="#FED7AA" stroke-width="8"/>
  <rect x="220" y="250" width="560" height="430" rx="36" fill="#FFEDD5"/>
  <path d="M300 570H680" stroke="#EA580C" stroke-width="20" stroke-linecap="round"/>
  <path d="M330 500H650" stroke="#FB923C" stroke-width="20" stroke-linecap="round"/>
  <circle cx="360" cy="390" r="50" fill="#2563EB"/>
  <circle cx="500" cy="390" r="50" fill="#0F766E"/>
  <circle cx="640" cy="390" r="50" fill="#F59E0B"/>
  <rect x="860" y="270" width="430" height="84" rx="24" fill="#C2410C"/>
  <rect x="860" y="392" width="500" height="28" rx="14" fill="#94A3B8"/>
  <rect x="860" y="444" width="470" height="28" rx="14" fill="#CBD5E1"/>
  <rect x="860" y="496" width="410" height="28" rx="14" fill="#CBD5E1"/>
  <rect x="860" y="570" width="280" height="64" rx="20" fill="#2563EB"/>
  <text x="210" y="915" fill="#C2410C" font-family="Arial, sans-serif" font-size="40" font-weight="700">Replace: /public/images/placeholders/events-community.svg</text>
  <defs>
    <linearGradient id="a" x1="170" y1="80" x2="1450" y2="900" gradientUnits="userSpaceOnUse">
      <stop stop-color="#FFF7ED"/>
      <stop offset="1" stop-color="#EFF6FF"/>
    </linearGradient>
  </defs>
</svg>
