<svg width="1600" height="1000" viewBox="0 0 1600 1000" fill="none" xmlns="http://www.w3.org/2000/svg">
  <rect width="1600" height="1000" fill="#F8FAFC"/>
  <rect width="1600" height="1000" fill="url(#a)"/>
  <circle cx="1300" cy="180" r="180" fill="#06B6D4" fill-opacity=".1"/>
  <circle cx="250" cy="790" r="210" fill="#2563EB" fill-opacity=".12"/>
  <rect x="120" y="150" width="1360" height="700" rx="56" fill="#fff"/>
  <rect x="120" y="150" width="1360" height="700" rx="56" stroke="#CFFAFE" stroke-width="8"/>
  <rect x="220" y="250" width="560" height="420" rx="36" fill="#E0F2FE"/>
  <rect x="280" y="330" width="120" height="220" rx="18" fill="#0F172A"/>
  <rect x="440" y="290" width="130" height="260" rx="18" fill="#2563EB"/>
  <rect x="610" y="370" width="90" height="180" rx="18" fill="#0891B2"/>
  <rect x="860" y="270" width="430" height="86" rx="24" fill="#0F172A"/>
  <rect x="860" y="394" width="500" height="28" rx="14" fill="#94A3B8"/>
  <rect x="860" y="446" width="470" height="28" rx="14" fill="#CBD5E1"/>
  <rect x="860" y="498" width="410" height="28" rx="14" fill="#CBD5E1"/>
  <rect x="860" y="570" width="290" height="64" rx="20" fill="#06B6D4"/>
  <text x="210" y="915" fill="#0F172A" font-family="Arial, sans-serif" font-size="40" font-weight="700">Replace: /public/images/placeholders/facilities-campus.svg</text>
  <defs>
    <linearGradient id="a" x1="180" y1="90" x2="1430" y2="900" gradientUnits="userSpaceOnUse">
      <stop stop-color="#F0F9FF"/>
      <stop offset="1" stop-color="#F8FAFC"/>
    </linearGradient>
  </defs>
</svg>
