<svg width="1600" height="1000" viewBox="0 0 1600 1000" fill="none" xmlns="http://www.w3.org/2000/svg">
  <rect width="1600" height="1000" fill="#F8FAFC"/>
  <rect width="1600" height="1000" fill="url(#a)"/>
  <circle cx="1280" cy="180" r="170" fill="#A855F7" fill-opacity=".12"/>
  <circle cx="240" cy="780" r="210" fill="#2563EB" fill-opacity=".12"/>
  <rect x="120" y="150" width="1360" height="700" rx="56" fill="#fff"/>
  <rect x="120" y="150" width="1360" height="700" rx="56" stroke="#DDD6FE" stroke-width="8"/>
  <rect x="220" y="250" width="560" height="430" rx="36" fill="#F3E8FF"/>
  <circle cx="400" cy="400" r="82" fill="#2563EB"/>
  <circle cx="585" cy="470" r="94" fill="#A855F7"/>
  <path d="M300 610C352 544 432 510 520 516C596 522 666 560 718 624" stroke="#6D28D9" stroke-width="18" stroke-linecap="round"/>
  <rect x="860" y="270" width="430" height="84" rx="24" fill="#6D28D9"/>
  <rect x="860" y="392" width="490" height="28" rx="14" fill="#94A3B8"/>
  <rect x="860" y="444" width="460" height="28" rx="14" fill="#CBD5E1"/>
  <rect x="860" y="496" width="420" height="28" rx="14" fill="#CBD5E1"/>
  <rect x="860" y="570" width="290" height="64" rx="20" fill="#2563EB"/>
  <text x="210" y="915" fill="#6D28D9" font-family="Arial, sans-serif" font-size="40" font-weight="700">Replace: /public/images/placeholders/faculty-mentorship.svg</text>
  <defs>
    <linearGradient id="a" x1="150" y1="90" x2="1450" y2="900" gradientUnits="userSpaceOnUse">
      <stop stop-color="#F5F3FF"/>
      <stop offset="1" stop-color="#EFF6FF"/>
    </linearGradient>
  </defs>
</svg>
