<svg width="1600" height="1000" viewBox="0 0 1600 1000" fill="none" xmlns="http://www.w3.org/2000/svg">
  <rect width="1600" height="1000" fill="#EEF4FF"/>
  <rect width="1600" height="1000" fill="url(#a)"/>
  <circle cx="1320" cy="180" r="180" fill="#F59E0B" fill-opacity=".18"/>
  <circle cx="260" cy="760" r="220" fill="#2563EB" fill-opacity=".14"/>
  <rect x="130" y="160" width="1340" height="680" rx="48" fill="#fff"/>
  <rect x="130" y="160" width="1340" height="680" rx="48" stroke="#BFDBFE" stroke-width="8"/>
  <rect x="210" y="250" width="500" height="360" rx="32" fill="#DBEAFE"/>
  <rect x="770" y="250" width="600" height="90" rx="24" fill="#1D4ED8"/>
  <rect x="770" y="370" width="470" height="28" rx="14" fill="#94A3B8"/>
  <rect x="770" y="420" width="540" height="28" rx="14" fill="#CBD5E1"/>
  <rect x="770" y="470" width="430" height="28" rx="14" fill="#CBD5E1"/>
  <rect x="770" y="555" width="240" height="64" rx="20" fill="#F59E0B"/>
  <circle cx="350" cy="410" r="74" fill="#F59E0B"/>
  <circle cx="510" cy="380" r="60" fill="#2563EB"/>
  <circle cx="450" cy="500" r="88" fill="#0F766E"/>
  <path d="M266 590C322 520 404 488 478 498C548 508 611 556 654 620" stroke="#1E3A8A" stroke-width="18" stroke-linecap="round"/>
  <text x="210" y="915" fill="#1E3A8A" font-family="Arial, sans-serif" font-size="40" font-weight="700">Replace: /public/images/placeholders/home-community.svg</text>
  <defs>
    <linearGradient id="a" x1="162" y1="112" x2="1467" y2="891" gradientUnits="userSpaceOnUse">
      <stop stop-color="#EFF6FF"/>
      <stop offset="1" stop-color="#FFF7ED"/>
    </linearGradient>
  </defs>
</svg>
